<svg width="180" height="180" viewBox="0 0 180 180" fill="none" xmlns="http://www.w3.org/2000/svg">
<rect width="180" height="180" fill="white"/>
<path d="M51.5781 19.2064V21.3402H36.288L62.6792 128.541L85.0909 21.3402H71.0574V19.2064H103.313V21.3402H87.4341L57.0632 166.034H55.5578L20.16 21.3402H6.54541V19.2064H51.5781Z" fill="black"/>
<path d="M147.05 29.4677L153.753 16.7303C154.032 16.3114 154.311 15.8925 154.591 15.4735C154.87 15.0546 155.551 14.8452 156.109 14.8452C156.668 14.8452 156.928 14.8451 157.104 15.4734C157.104 15.9484 157.104 16.6605 157.104 17.3586V56.2779C155.645 56.2779 156.47 56.2779 155.492 56.2779C154.375 56.2779 155.492 56.2779 153.753 56.2779C153.055 51.8096 151.798 47.4808 149.983 43.2917C148.307 39.1026 146.143 35.4023 143.489 32.1906C140.836 28.8394 137.764 26.1863 134.273 24.2314C130.783 22.1368 126.943 19.4532 122.753 19.4532C115.492 19.4532 109.697 23.5332 105.369 28.4205C101.04 33.3077 97.7585 39.2423 95.5244 46.2241C93.2902 53.2059 91.824 60.5368 91.1258 68.2168C90.4276 75.7572 90.0785 82.2503 90.0785 87.6961V100.263C90.0785 106.687 90.6371 113.529 91.7542 120.79C93.0109 128.051 94.8262 134.754 97.2 140.898C99.7134 147.042 102.855 152.138 106.625 156.188C110.396 160.237 114.864 162.262 120.031 162.262C126.873 162.262 132.039 159.539 135.53 154.093C139.021 148.647 140.767 141.107 140.767 131.472V105.081H122.963V102.947H172.185V105.081H157.732V166.242H142.167L142.652 149.865C140.836 155.45 138.253 158.212 134.902 161.424C131.551 164.496 126.663 166.032 120.24 166.032C112.281 166.032 105.299 164.007 99.2945 159.958C93.4298 155.769 88.4727 150.323 84.4232 143.62C80.5134 136.918 77.5811 129.238 75.6262 120.58C73.6713 111.923 72.6938 103.056 72.6938 93.9797C72.6938 84.4845 73.7411 75.1986 75.8356 66.1223C77.9302 56.9063 81.072 48.6677 85.2611 41.4066C89.4502 34.1456 94.6866 28.3506 100.97 24.0219C107.254 19.5536 114.515 15.683 122.753 15.683C125.965 15.683 128.828 16.1019 131.341 16.9397C133.855 17.6379 136.089 18.6154 138.044 19.8721C139.999 20.9892 142.093 23.4545 143.489 24.9905C145.025 26.3868 145.933 28.211 147.05 29.4677Z" fill="black"/>
<line x1="6.5" y1="180" x2="6.5" stroke="black"/>
<line x1="82.5" y1="180" x2="82.5" stroke="black"/>
<line x1="82.5" y1="180" x2="82.5" stroke="black"/>
<line x1="94.5" y1="180" x2="94.5" stroke="black"/>
<line x1="171.5" y1="180" x2="171.5" stroke="black"/>
</svg>
