<svg width="729" height="134" viewBox="0 0 729 134" fill="none" xmlns="http://www.w3.org/2000/svg">
<path d="M38.6077 8.05356V9.88392H25.499L48.125 101.84L67.339 9.88392H55.3078V8.05356H82.9617V9.88392H69.348L43.3102 134H42.0196L11.6721 9.88392H0V8.05356H38.6077Z" fill="black"/>
<path d="M119.594 129.654C124.502 129.654 139.069 129.449 142.576 129.449V96.1499L133.977 94.7462V94.3273H153.617V94.7462C153.617 94.7462 145.901 96.1499 145.2 96.1499V108.081L145.057 119.783L144.913 131.485C144.026 131.524 142.22 131.485 140.783 131.485H72.1873V129.654H82.9616L82.9617 9.88392H72.1873V8.05356H108.281V9.88392H89.5944L90.9973 129.654H119.594Z" fill="black"/>
<path d="M149.408 129.449H156.229H163.05L194.088 6.43648H194.122L225.546 129.654H237.937V131.485H196.097V129.654H210.822L201.304 93.5749H173.83L164.84 129.449H180.833V131.485H149.408V129.449ZM187.657 38.9562L174.728 90.3409H200.766L187.657 38.9562Z" fill="black"/>
<path d="M275.282 8.05348C281.866 8.05348 287.852 9.49082 293.239 12.3655C298.626 15.2402 303.235 19.3725 307.066 24.7625C310.897 30.1525 313.83 36.6804 315.865 44.3462C317.9 51.8922 318.918 60.3365 318.918 69.6792C318.918 89.8019 315.087 105.133 307.425 115.674C299.883 126.214 289.289 131.485 275.641 131.485H236.315V129.654H247.089V9.88384H236.315V8.05348H275.282ZM255.305 129.654H274.384C284.32 129.654 291.623 123.579 296.292 114.237C300.961 104.894 303.295 91.9579 303.295 75.4285V63.9298C303.295 46.6818 300.841 33.6261 295.933 24.7625C291.144 15.7792 283.722 9.88384 273.666 9.88384H255.305V129.654Z" fill="black"/>
<path d="M413.298 12.543L419.044 1.61697C419.283 1.25764 419.523 0.89831 419.762 0.538974C420.002 0.179637 420.585 0 421.064 0C421.543 0 421.766 -0.000116711 421.917 0.538857C421.917 0.946321 421.917 1.55709 421.917 2.15598V35.5403C420.666 35.5403 421.373 35.5403 420.535 35.5403C419.578 35.5403 420.535 35.5403 419.044 35.5403C418.445 31.7074 417.368 27.9943 415.812 24.401C414.375 20.8076 412.519 17.6335 410.245 14.8786C407.97 12.004 405.337 9.72819 402.344 8.05129C399.351 6.25462 396.059 3.95264 392.467 3.95264C386.242 3.95264 381.274 7.45241 377.563 11.6446C373.852 15.8369 371.039 20.9274 369.123 26.9163C367.208 32.9052 365.951 39.1936 365.352 45.7813C364.754 52.2493 364.454 57.819 364.454 62.4904V73.2704C364.454 78.7802 364.933 84.6493 365.891 90.8777C366.968 97.1062 368.525 102.856 370.56 108.126C372.715 113.396 375.408 117.768 378.64 121.241C381.873 124.715 385.704 126.452 390.133 126.452C395.999 126.452 400.428 124.116 403.421 119.445C406.414 114.773 407.91 108.305 407.91 100.041V77.4027H392.647V75.5724H434.846V77.4027H422.456V129.865H409.111L409.527 115.818C407.97 120.609 405.756 122.978 402.883 125.733C400.009 128.368 395.819 129.686 390.313 129.686C383.489 129.686 377.503 127.949 372.355 124.475C367.327 120.882 363.078 116.211 359.606 110.461C356.254 104.712 353.74 98.1243 352.064 90.6981C350.388 83.2718 349.55 75.6659 349.55 67.8804C349.55 59.7355 350.448 51.7702 352.244 43.9847C354.039 36.0793 356.733 29.0124 360.324 22.784C363.916 16.5555 368.405 11.5847 373.792 7.87163C379.179 4.03873 385.404 0.718638 392.467 0.718638C395.221 0.718638 397.675 1.07797 399.83 1.79665C401.985 2.39554 403.9 3.23398 405.576 4.31198C407.252 5.2702 409.048 7.38489 410.245 8.70245C411.562 9.90023 412.34 11.465 413.298 12.543Z" fill="black"/>
<path d="M463.117 5.03073V6.86108H451.445V94.2915C451.445 100.999 451.984 106.509 453.062 110.821C454.259 115.013 455.815 118.367 457.73 120.882C459.765 123.278 462.16 124.955 464.913 125.913C467.667 126.871 470.6 127.35 473.712 127.35C476.346 127.35 478.98 126.811 481.613 125.733C484.247 124.655 486.581 122.859 488.617 120.343C490.652 117.828 492.268 114.594 493.465 110.641C494.782 106.569 495.44 101.598 495.44 95.7288V6.86108H483.768V5.03073H509.447V6.86108H498.673V95.9085C498.673 107.527 496.218 116.391 491.31 122.499C486.522 128.488 478.8 131.483 468.145 131.483C458.209 131.483 450.667 128.249 445.52 121.781C440.372 115.313 437.798 106.689 437.798 95.9085V6.86108H427.024V5.03073H463.117Z" fill="black"/>
<path d="M574.243 35.5404C574.243 40.2117 573.465 44.2243 571.909 47.5781C570.472 50.8121 568.617 53.5071 566.342 55.6631C564.068 57.8191 561.614 59.496 558.98 60.6938C556.466 61.8916 554.132 62.6701 551.977 63.0294C555.209 63.6283 558.381 64.7662 561.494 66.4431C564.607 68.0002 567.42 70.1562 569.934 72.9111C572.448 75.5462 574.483 78.7204 576.039 82.4335C577.595 86.1466 578.374 90.3388 578.374 95.0102C578.374 99.6815 577.775 104.113 576.578 108.306C575.381 112.498 573.525 116.211 571.011 119.445C568.617 122.679 565.564 125.254 561.853 127.171C558.262 128.967 554.072 129.866 549.283 129.866H506.007V128.035H520.597V6.86108H506.007V5.03073H542.819C547.009 5.03073 550.959 7.09315 554.67 8.41071C558.501 9.60849 561.853 11.4052 564.726 13.8007C567.599 16.1963 569.874 19.2506 571.55 22.9637C573.346 26.5571 574.243 30.7493 574.243 35.5404ZM528.632 128.035H542.998C545.871 128.035 548.565 126.212 551.079 125.374C553.713 124.535 555.987 122.978 557.903 120.703C559.938 118.307 561.554 115.073 562.751 111.001C563.948 106.928 564.547 101.598 564.547 95.0102C564.547 88.9015 563.888 83.8708 562.571 79.9181C561.374 75.9655 559.698 72.8512 557.543 70.5755C555.508 68.2997 553.174 66.7426 550.54 65.9041C548.026 64.9459 545.512 64.4668 542.998 64.4668H528.632V128.035ZM528.632 61.2328H542.819C548.206 61.2328 552.635 59.2564 556.107 55.3038C559.579 51.2313 561.314 44.6435 561.314 35.5404C561.314 26.078 559.519 19.4303 555.927 15.5974C552.336 11.6447 547.428 6.86108 541.202 6.86108H528.632V61.2328Z" fill="black"/>
<path d="M576.961 128.035H590.575L621.64 3.41372H621.674L653.099 128.035H665.489V129.866H623.649V128.035H638.374L628.857 91.9558H601.382L592.404 128.035H608.386V129.866H576.961V128.035ZM615.209 37.3371L602.28 88.7218H628.318L615.209 37.3371Z" fill="black"/>
<path d="M713.916 112.438C713.916 113.995 713.976 115.612 714.096 117.289C714.335 118.966 714.694 120.463 715.173 121.78C715.772 123.098 716.49 124.236 717.328 125.194C718.166 126.033 719.243 126.452 720.56 126.452C722.476 126.452 724.75 125.314 727.384 123.038C727.743 122.679 728.102 122.499 728.461 122.499C728.82 122.499 729 122.739 729 123.218C729 123.218 728.88 123.457 728.641 123.936C727.085 125.973 725.049 127.59 722.535 128.787C720.141 129.985 717.627 130.584 714.993 130.584C712.24 130.584 709.846 130.105 707.811 129.147C705.776 128.189 704.1 126.572 702.783 124.296C701.586 121.9 700.688 118.786 700.089 114.953C699.491 111.12 699.191 106.329 699.191 100.58C699.191 88.2427 697.815 79.4989 695.061 74.3484C692.427 69.0782 687.878 66.4431 681.414 66.4431H671.717V128.035H682.85V129.865H646.038V128.035H662.424V6.86105H646.038V5.0307H684.107C689.524 4.91277 693.189 6.76542 697.216 8.77001C700.747 10.5274 704.254 12.6328 707.092 15.238C709.726 17.9929 711.701 21.2269 713.018 24.94C714.455 28.5334 715.173 32.486 715.173 36.798C715.173 41.2298 714.395 45.1226 712.839 48.4764C711.402 51.8302 709.546 54.7048 707.272 57.1004C704.997 59.496 702.424 61.4124 699.55 62.8497C696.797 64.2871 694.103 65.3052 691.47 65.9041C694.941 66.3832 698.234 67.7606 701.346 70.0364C704.459 72.1924 707.152 75.3665 709.427 79.5588C710.265 81.1159 710.983 82.7329 711.582 84.4098C712.18 86.0867 712.659 88.1828 713.018 90.6981C713.377 93.0937 713.617 96.0282 713.737 99.5018C713.856 102.975 713.916 107.287 713.916 112.438ZM682.671 63.2091C685.544 63.2091 688.178 62.7899 690.572 61.9514C692.966 60.9932 695.001 59.496 696.677 57.4597C698.473 55.3037 699.85 52.5488 700.807 49.1951C701.885 45.7215 702.424 41.4694 702.424 36.4387C702.424 31.408 701.885 27.2158 700.807 23.862C699.85 20.3885 698.473 17.6336 696.677 15.5974C695.001 13.4414 693.031 11.2292 690.572 9.70204C687.785 7.97108 685.315 7.01824 682.671 6.86105H671.717V35.0351V63.2091H682.671Z" fill="black"/>
</svg>
